# xmcd
#
# Track frame offsets: 
#        182
#        19557
#        35047
#        52492
#        66822
#        78617
#        95505
#        104240
#        129242
#        146037
#
# Disc length: 2155 seconds
#
# Revision: 3
# Processed by: cddbd v1.5.2PL0 Copyright (c) Steve Scherf et al.
# Submitted via: ExactAudioCopy v0.99pb4
#
DISCID=9508690a
DTITLE=Almir Sater - Terra De Sonhos
DYEAR=1900
DGENRE=MPB
TTITLE0=É Necessário
TTITLE1=Terra De Sonhos
TTITLE2=Vaso Quebrado
TTITLE3=Na Cumbuca
TTITLE4=O Ganso (Instrumental)
TTITLE5=Mês De Maio
TTITLE6=Jesus Menino
TTITLE7=Vida, Bela Vida
TTITLE8=A Saudade é Uma Estrada Longa
TTITLE9=Rasta Do Adeus
EXTD=
EXTT0=
EXTT1=
EXTT2=
EXTT3=
EXTT4=
EXTT5=
EXTT6=
EXTT7=
EXTT8=
EXTT9=
PLAYORDER=
